<svg id="logo icon" xmlns="http://www.w3.org/2000/svg" viewBox="0 0 500 500"><defs><style>.cls-2{stroke-width:0;fill:#1f1f21}</style></defs><path class="cls-2" d="M147.23 132.33c.07-1.97.26-5.76.9-10.5 1.19-8.82 3.23-15.61 4.53-19.47.47-1.38 1.82-5.26 3.88-9.59a60.9 60.9 0 0 1 3.04-5.64c.47-.77 1.01-1.65 1.8-2.72 1.86-2.54 3.55-4.06 3.54-4.07-.02-.02-9.05 7.74-16.97 16.79-14.74 16.85-22.33 32.44-25.98 39.93-13.65 28.03-17.17 52.59-19.27 67.27-1.96 13.71-4.58 42.12-.06 78.29 2.72 21.74 5.79 46.37 19.43 75.92 7.42 16.06 22.85 49.49 58.63 73.5 7.64 5.13 23.8 14.62 46.16 20.59 7.35 1.96 22.36 5.98 41.83 5.98 11.42 0 24.39-1.38 38.24-5.37 6.9-1.99 23.08-6.65 40.27-18.32-4.46-9.91-10.94-16.16-13.68-18.73-3.32-3.12-10.48-9.85-21.55-13.15-1.85-.55-3.41-.89-4.74-1.14-5.43 2.32-10.13 3.68-13.26 4.58-24.94 7.19-46 1.56-54.99-.85-16.35-4.37-27.85-11.37-32.03-14.18-24.57-16.48-35.3-39.72-41.7-53.6-10.44-22.61-12.79-41.44-15.28-61.38-4.18-33.46-1.02-58.31-.06-65.14a227.53 227.53 0 0 1 6.81-31.68c-1.77-3.91-3.88-9.21-5.68-15.67-1.07-3.86-1.7-6.91-1.96-8.3-1.82-9.56-2.03-17.59-1.83-23.36z"/><path d="M375.97 276.83c-3.7-4.97-7.61-9.38-11.82-13.45-.82-.77-1.35-1.28-1.86-1.75-.59-.54-1.17-1.09-1.78-1.62l-.03-.03c-.86-.76-1.74-1.51-2.63-2.25-.15-.12-.3-.25-.45-.37-.9-.74-1.8-1.47-2.73-2.19-12.68-9.87-43.79-26.62-43.8-26.62-2.33-1.25-4.72-2.52-7.19-3.84-3.2-1.71-5.97-3.15-8.46-4.41-5-2.53-4.88-2.34-6.32-3.13-2.7-1.3-5.15-2.44-7.65-3.61-6.67-3.11-14.23-6.63-29.65-14.67-28.26-14.73-37.14-20.78-42.27-25.89-.81-.81-1.79-1.85-3.02-3.33-3.02-3.65-11.04-13.35-11.89-27.12-.91-14.81 6.87-27.89 15.81-35.14 3.51-2.84 6.64-4.35 10.63-6.26 9.3-4.46 17.94-6.28 27.95-8.09 2.98-.54 6.17-1.11 9.56-1.6.03-.1.05-.2.08-.3 1.07-4.25 3.32-13.22 2.4-22.93-.4-4.22-1.64-17.04-10.21-24.73-3.83.57-7.24 1.18-10.16 1.71-3.31.6-7.52 1.36-12.42 2.53-1.61.42-3.22.85-4.83 1.27-1.91.5-3.68 1.01-5.39 1.53-5.02 1.56-10.46 3.55-16.23 6.14-4.2 1.89-9.89 4.74-16.43 8.8-.06.04-.12.07-.18.11-9.13 5.67-18.36 13.23-20.08 14.77-8.2 7.33-20.2 34.18-17.32 65.29.64 6.92 3.75 32.77 22.37 55.47 13.49 16.45 30.18 25.54 59.92 41.04 16.35 8.52 24.42 12.28 31.53 15.6 6.14 2.86 10.98 5.12 20.16 10.01 32.79 17.49 46.49 25.11 56.38 38.42 5.13 6.91 13.73 18.46 14.18 34.56.54 18.88-10.7 33.02-15.49 39.07a70.497 70.497 0 0 1-9.4 9.74c1.44 2.95 5.63 11.21 13.07 18.24 4.25 4.02 12.98 12.26 24.2 12.16.25 0 .48-.03.73-.04 2.89-2.93 5.73-6.09 8.46-9.54 6.71-8.45 27.13-34.18 26.09-71.04-.9-31.64-16.97-53.27-23.84-62.51z" style="stroke-width:0;fill:#417c5e"/><path class="cls-2" d="M366.34 243.08c6.48-7.51 18.54-21.49 26.27-43.83 7.63-22.08 9.08-44.04 4.31-65.28-3.82-16.99-13.6-41.72-38.57-63.03-24.26-20.72-49.95-25.26-60.92-27.2-9.92-1.75-19.1-2.2-27.33-1.98-3.56 10.97-1.92 20.92-1.22 24.83 2.23 12.54 8.51 21.8 9.87 23.75.02.03.04.05.06.08 3.34.19 6.83.56 10.48 1.2 8.4 1.48 24.02 4.25 38.45 16.57 14.81 12.64 20.52 26.9 22.71 36.63 4.11 18.3-1.09 33.36-2.8 38.3-4.65 13.47-12.14 22.14-17.09 27.88a102.2 102.2 0 0 1-19.65 17.56s31.11 16.75 43.8 26.62c4.1-3.8 7.99-7.83 11.66-12.08z"/></svg>